<?xml version="1.0" standalone="no"?>
<!DOCTYPE svg PUBLIC "-//W3C//DTD SVG 20010904//EN"
 "http://www.w3.org/TR/2001/REC-SVG-20010904/DTD/svg10.dtd">
<svg version="1.0" xmlns="http://www.w3.org/2000/svg"
 width="2048.000000pt" height="2048.000000pt" viewBox="0 0 2048.000000 2048.000000"
 preserveAspectRatio="xMidYMid meet">

<g transform="translate(0.000000,2048.000000) scale(0.100000,-0.100000)"
fill="#000000" stroke="none">
<path d="M1347 20469 c-311 -36 -589 -155 -828 -354 -248 -207 -432 -524 -496
-857 -17 -89 -18 -475 -18 -9018 0 -8543 1 -8929 18 -9018 119 -618 591 -1079
1227 -1199 91 -17 488 -18 8975 -18 7476 0 8894 2 8970 14 330 50 608 192 850
435 229 229 353 462 411 772 18 96 19 342 19 9014 0 8674 -1 8918 -19 9015
-36 193 -117 393 -227 560 -72 109 -289 325 -399 397 -189 124 -384 204 -605
246 -85 16 -626 17 -8950 18 -4873 1 -8891 -2 -8928 -7z m3554 -2843 c582
-124 1050 -507 1278 -1046 106 -253 157 -566 132 -820 -46 -454 -226 -834
-539 -1131 -249 -238 -510 -376 -858 -456 -111 -25 -135 -27 -354 -28 -208 0
-248 3 -344 23 -493 104 -897 385 -1163 807 -51 81 -140 273 -173 373 -138
425 -109 900 79 1297 262 553 765 919 1381 1005 36 5 151 7 255 5 154 -3 212
-9 306 -29z m9218 -4586 c1940 -98 2952 -1057 3235 -3065 42 -296 67 -589 86
-1015 6 -129 10 -1364 10 -3073 l0 -2857 -1517 2 -1518 3 -6 2750 c-4 1513
-10 2770 -13 2795 -4 25 -11 90 -17 145 -58 575 -210 979 -466 1246 -189 196
-421 314 -732 371 -157 29 -527 32 -701 5 -455 -71 -778 -246 -1015 -552 -227
-294 -367 -708 -420 -1248 -32 -325 -35 -594 -35 -3049 l0 -2468 -1515 0
-1515 0 0 4885 0 4885 1455 0 1455 0 0 -665 c0 -651 0 -665 19 -665 14 0 38
31 86 110 380 630 1045 1118 1819 1335 403 112 800 150 1305 125z m-8039
-5125 l0 -4885 -1525 0 -1525 0 0 4885 0 4885 1525 0 1525 0 0 -4885z"/>
</g>
</svg>
